Coordinates
version=1
nRows=10
nColumns=38
inDegrees=yes

Units are S.I. units (second, meters, Newtons, ...)
If the header above contains a line with 'inDegrees', this indicates whether rotational values are in degrees (yes) or radians (no).

endheader
time	pelvis_tilt	pelvis_list	pelvis_rotation	pelvis_tx	pelvis_ty	pelvis_tz	hip_flexion_r	hip_adduction_r	hip_rotation_r	knee_angle_r	ankle_angle_r	subtalar_angle_r	mtp_angle_r	hip_flexion_l	hip_adduction_l	hip_rotation_l	knee_angle_l	ankle_angle_l	subtalar_angle_l	mtp_angle_l	lumbar_extension	lumbar_bending	lumbar_rotation	arm_flex_r	arm_add_r	arm_rot_r	elbow_flex_r	pro_sup_r	wrist_flex_r	wrist_dev_r	arm_flex_l	arm_add_l	arm_rot_l	elbow_flex_l	pro_sup_l	wrist_flex_l	wrist_dev_l
      1.09600000	      0.51524340	     -0.75887436	      4.67538180	     -1.51015746	      1.03222896	      0.23653758	    -14.21814732	      4.08721202	     -2.11693927	    -22.40461433	      5.04250771	     11.57565046	      0.00000000	     41.13666754	      2.84311678	      0.75470219	    -87.58580248	      0.84777825	     -0.62638802	      0.00000000	    -12.45169863	      1.34008017	      9.81742856	    -15.06969392	    -33.20708128	    -12.38737025	    128.74989406	     60.00586988	      0.00000000	      0.00000000	    -42.76814573	    -24.34430725	      7.28299101	     76.00302609	     60.00014031	      0.00000000	      0.00000000
      1.10000000	      0.29650086	      0.07240166	      4.84430704	     -1.49463028	      1.03515546	      0.23562610	    -15.03408866	      3.12771704	     -2.88778096	    -21.66894768	      2.75197941	     11.93640857	      0.00000000	     41.23567930	      3.76909992	      0.19983803	    -85.36966826	      0.75661641	     -1.49987409	      0.00000000	    -12.05117649	      0.47832204	      9.63995373	    -14.91448945	    -33.02746246	    -12.51404328	    130.11037759	     60.00586988	      0.00000000	      0.00000000	    -43.67950037	    -24.45909491	      7.01685261	     76.26777076	     60.00014031	      0.00000000	      0.00000000
      1.10400000	     -0.15669502	      0.48337775	      4.81361101	     -1.47923275	      1.03771951	      0.23522135	    -15.54660521	      2.63281205	     -3.01418064	    -20.87213554	      0.17876019	     11.77135752	      0.00000000	     41.61053540	      4.13455149	     -0.26665636	    -83.20045499	      0.74245757	     -2.08066200	      0.00000000	    -11.37219059	     -0.01027127	      9.75094141	    -14.96254846	    -32.87407684	    -12.51325233	    131.50144792	     60.00586988	      0.00000000	      0.00000000	    -44.58970628	    -24.45560974	      6.56468424	     76.59033473	     60.00014031	      0.00000000	      0.00000000
      1.10800000	     -0.39880772	      1.30035084	      4.99020626	     -1.46363717	      1.04048590	      0.23442448	    -16.27285119	      1.73274448	     -3.78109632	    -20.21635588	     -2.10694458	     11.87642389	      0.00000000	     41.62714267	      5.01130050	     -0.81624355	    -80.84179277	      0.54945264	     -2.97717927	      0.00000000	    -10.95508453	     -0.89879878	      9.54688921	    -14.84611069	    -32.56849626	    -12.60054460	    132.78234467	     60.00586988	      0.00000000	      0.00000000	    -45.55874110	    -24.43804383	      5.98795490	     76.94165584	     60.00014031	      0.00000000	      0.00000000
      1.11200000	     -0.80725625	      1.44000131	      4.88745498	     -1.44868591	      1.04273637	      0.23383720	    -16.59729854	      1.46208024	     -3.82581310	    -19.74623804	     -4.11987222	     11.95671360	      0.00000000	     41.96945261	      5.11525417	     -1.11730298	    -78.66063695	      0.53862352	     -3.20176725	      0.00000000	    -10.36833962	     -1.02574522	      9.65254620	    -14.57328589	    -32.60356637	    -12.63962552	    134.22310839	     60.00586988	      0.00000000	      0.00000000	    -46.35140089	    -24.36544018	      5.93097208	     77.19450437	     60.00014031	      0.00000000	      0.00000000
      1.11600000	     -1.26241827	      2.25302823	      5.06214682	     -1.43283918	      1.04532933	      0.23341761	    -17.09658935	      0.64875311	     -4.41545124	    -19.03249285	     -6.56021622	     11.33608161	      0.00000000	     42.07129793	      5.90653338	     -1.76291163	    -76.07807051	      0.07210815	     -4.05239378	      0.00000000	     -9.71319652	     -1.99380114	      9.56590854	    -14.79282720	    -32.12812866	    -12.72280275	    135.25141425	     60.00586988	      0.00000000	      0.00000000	    -47.21899925	    -24.49838666	      5.35791093	     77.38860218	     60.00014031	      0.00000000	      0.00000000
      1.12000000	     -1.68188398	      2.64118076	      5.07162798	     -1.41732895	      1.04752472	      0.23291082	    -17.40800760	      0.16586072	     -4.80868368	    -18.62397584	     -8.85835839	     11.15387111	      0.00000000	     42.20147637	      6.25057527	     -2.16416503	    -73.63935432	      0.00615395	     -4.26486939	      0.00000000	     -9.05141627	     -2.45019068	      9.65145631	    -14.76357522	    -31.97622741	    -13.03821666	    136.19776743	     60.00586988	      0.00000000	      0.00000000	    -48.12303995	    -24.45871834	      4.88235425	     77.74001996	     60.00014031	      0.00000000	      0.00000000
      1.12400000	     -2.06069020	      2.98727151	      5.10118344	     -1.40197283	      1.04964233	      0.23238677	    -17.74419491	     -0.23806440	     -5.10073535	    -18.20210432	    -10.91874621	     10.87869124	      0.00000000	     42.25365522	      6.57091655	     -2.52132313	    -71.12984211	     -0.16988935	     -4.39540806	      0.00000000	     -8.46090331	     -2.86319955	      9.69201729	    -14.75993136	    -31.88245990	    -13.11557429	    137.24048718	     60.00586988	      0.00000000	      0.00000000	    -48.93557263	    -24.38810402	      4.47117442	     78.01964682	     60.00014031	      0.00000000	      0.00000000
      1.12800000	     -2.38946722	      3.12823488	      5.05828381	     -1.38727607	      1.05151450	      0.23146875	    -17.94617176	     -0.49196059	     -5.15223379	    -18.04222313	    -12.57521014	     10.82092438	      0.00000000	     42.29838728	      6.77284558	     -2.68020728	    -68.64844540	     -0.28057580	     -4.33675277	      0.00000000	     -7.98296382	     -2.94627481	      9.76324897	    -14.49254094	    -32.00197726	    -13.29984019	    138.38021175	     60.00586988	      0.00000000	      0.00000000	    -49.67431568	    -24.20846273	      4.31893466	     78.31924991	     60.00014031	      0.00000000	      0.00000000
      1.13200000	     -2.72013451	      3.76911981	      5.23225357	     -1.37133925	      1.05367442	      0.23104744	    -18.44688233	     -1.07272804	     -5.56861701	    -17.49969810	    -14.76414299	      9.92295413	      0.00000000	     42.07732499	      7.39275757	     -3.09904918	    -65.85843513	     -0.50760395	     -4.35119054	      0.00000000	     -7.42130805	     -3.72290879	      9.63521686	    -14.66756668	    -31.63810218	    -13.22039648	    139.22222080	     60.00586988	      0.00000000	      0.00000000	    -50.55899793	    -24.22231924	      3.62010441	     78.57766999	     60.00014031	      0.00000000	      0.00000000
